<svg xmlns="http://www.w3.org/2000/svg" xmlns:xlink="http://www.w3.org/1999/xlink" zoomAndPan="magnify" preserveAspectRatio="xMidYMid meet" version="1.0" viewBox="311.58 359.75 225.3 115.98"><defs><clipPath id="1d3dabe5eb"><path d="M 508.261719 413.003906 L 536.867188 413.003906 L 536.867188 451.21875 L 508.261719 451.21875 Z M 508.261719 413.003906 " clip-rule="nonzero"/></clipPath></defs><path fill="#000000" d="M 311.597656 359.75 L 330.632812 359.75 L 330.632812 451.695312 L 311.597656 451.695312 Z M 311.597656 359.75 " fill-opacity="1" fill-rule="nonzero"/><path fill="#000000" d="M 367.875 382.34375 L 386.914062 382.34375 L 386.914062 456.945312 C 386.914062 469.449219 381.035156 475.707031 369.292969 475.707031 L 355.085938 475.707031 C 343.335938 475.707031 337.464844 469.449219 337.464844 456.945312 L 337.464844 454.691406 L 355.941406 454.691406 L 355.941406 459.222656 C 355.941406 459.980469 356.203125 460.644531 356.71875 461.21875 C 357.238281 461.785156 357.878906 462.074219 358.636719 462.074219 L 365.160156 462.074219 C 365.921875 462.074219 366.558594 461.785156 367.078125 461.21875 C 367.605469 460.644531 367.875 459.980469 367.875 459.222656 L 367.875 445.152344 C 365.027344 447.425781 361.140625 448.5625 356.222656 448.5625 L 353.226562 448.5625 C 341.480469 448.5625 335.605469 442.316406 335.605469 429.824219 L 335.605469 382.34375 L 354.644531 382.34375 L 354.644531 432.078125 C 354.644531 432.835938 354.90625 433.503906 355.421875 434.074219 C 355.953125 434.648438 356.601562 434.933594 357.359375 434.933594 L 365.160156 434.933594 C 365.921875 434.933594 366.558594 434.648438 367.078125 434.074219 C 367.605469 433.503906 367.875 432.835938 367.875 432.078125 Z M 367.875 382.34375 " fill-opacity="1" fill-rule="nonzero"/><path fill="#000000" d="M 411.050781 451.695312 L 392.011719 451.695312 L 392.011719 382.34375 L 409.351562 382.34375 L 409.351562 385.894531 C 412.292969 382.582031 416.742188 380.925781 422.703125 380.925781 L 425.695312 380.925781 C 437.441406 380.925781 443.316406 387.183594 443.316406 399.6875 L 443.316406 451.695312 L 424.28125 451.695312 L 424.28125 397.410156 C 424.28125 396.652344 424.011719 395.996094 423.480469 395.4375 C 422.960938 394.867188 422.324219 394.578125 421.566406 394.578125 L 413.761719 394.578125 C 413.003906 394.578125 412.355469 394.867188 411.828125 395.4375 C 411.308594 395.996094 411.050781 396.652344 411.050781 397.410156 Z M 411.050781 451.695312 " fill-opacity="1" fill-rule="nonzero"/><path fill="#000000" d="M 472.863281 428.964844 L 462.347656 451.695312 L 442.589844 451.695312 L 461.929688 414.753906 L 443.886719 382.34375 L 464.621094 382.34375 L 472.863281 403.097656 L 481.105469 382.34375 L 501.859375 382.34375 L 483.800781 414.753906 L 503.136719 451.695312 L 483.378906 451.695312 Z M 472.863281 428.964844 " fill-opacity="1" fill-rule="nonzero"/><path fill="#000000" d="M 534.617188 422.449219 C 534.632812 422.449219 534.648438 422.503906 534.644531 422.574219 C 534.644531 422.644531 534.628906 422.699219 534.609375 422.695312 C 534.59375 422.695312 534.578125 422.640625 534.582031 422.570312 C 534.582031 422.503906 534.605469 422.449219 534.617188 422.449219 " fill-opacity="1" fill-rule="nonzero"/><g clip-path="url(#1d3dabe5eb)"><path fill="#000000" d="M 508.445312 443.996094 C 508.53125 444.628906 508.480469 445.851562 508.371094 446.652344 C 508.261719 447.460938 508.453125 448.351562 508.453125 448.351562 C 508.554688 449.152344 509.394531 449.597656 509.605469 449.699219 C 509.8125 449.800781 510.136719 449.9375 510.777344 450.496094 C 511.414062 451.054688 512.757812 451.199219 513.699219 451.058594 C 514.636719 450.917969 516.195312 450.917969 517.605469 450.714844 C 519.011719 450.503906 519.625 450.625 520.859375 450.535156 C 522.089844 450.445312 522.449219 450.042969 522.699219 449.925781 C 522.953125 449.8125 523.230469 449.347656 523.257812 449.09375 C 523.289062 448.839844 523.410156 448.785156 523.453125 448.40625 C 523.5 448.03125 522.75 447.707031 522.75 447.707031 C 522.75 447.707031 522.808594 447.570312 522.738281 447.335938 C 522.675781 447.101562 522.511719 447.054688 522.28125 446.882812 C 522.054688 446.707031 521.921875 446.578125 521.816406 446.488281 C 521.707031 446.394531 522.285156 446.03125 522.3125 445.996094 C 522.339844 445.964844 522.3125 445.996094 522.304688 445.941406 C 522.300781 445.886719 522.167969 445.714844 522.132812 445.609375 C 522.101562 445.511719 522.445312 445.597656 522.425781 445.519531 C 522.40625 445.445312 522.351562 445.25 522.355469 445.230469 C 522.355469 445.207031 522.476562 445.242188 522.476562 445.242188 C 522.476562 445.242188 522.464844 445.207031 522.390625 445.066406 C 522.320312 444.925781 522.324219 444.972656 522.179688 444.796875 C 522.035156 444.625 522.378906 444.804688 522.476562 444.886719 C 522.566406 444.976562 522.617188 444.613281 522.449219 444.359375 C 522.285156 444.109375 522.601562 444.25 522.621094 444.179688 C 522.644531 444.113281 522.566406 444.09375 522.445312 443.96875 C 522.324219 443.839844 522.5 443.949219 522.625 443.90625 C 522.75 443.859375 522.636719 443.859375 522.519531 443.746094 C 522.40625 443.628906 522.519531 443.675781 522.59375 443.636719 C 522.664062 443.601562 522.511719 443.605469 522.402344 443.492188 C 522.285156 443.378906 522.675781 443.445312 522.664062 443.402344 C 522.648438 443.351562 522.625 443.332031 522.550781 443.210938 C 522.480469 443.089844 522.648438 443.15625 522.792969 443.15625 C 522.941406 443.15625 522.691406 442.996094 522.617188 442.8125 C 522.535156 442.632812 522.785156 442.863281 522.859375 442.910156 C 522.929688 442.960938 522.835938 442.863281 522.773438 442.683594 C 522.71875 442.503906 523.050781 442.164062 522.96875 442.308594 C 522.882812 442.457031 523.058594 442.597656 523.058594 442.597656 C 523.058594 442.597656 523.0625 442.496094 523.160156 442.125 C 523.253906 441.75 523.753906 441.789062 523.757812 442.109375 C 523.761719 442.433594 523.757812 442.492188 523.71875 443.621094 C 523.683594 444.746094 523.914062 445.371094 523.996094 445.605469 C 524.078125 445.84375 524.328125 446.84375 524.382812 447.371094 C 524.441406 447.902344 524.921875 447.871094 524.90625 448.089844 C 524.890625 448.308594 525.300781 449.316406 525.554688 449.453125 C 525.8125 449.585938 525.628906 449.847656 526.171875 450.089844 C 526.710938 450.335938 527.953125 450.359375 528.460938 450.171875 C 528.972656 449.980469 529.300781 449.933594 529.828125 449.753906 C 530.359375 449.566406 530.761719 449.023438 530.609375 448.578125 C 530.449219 448.136719 529.855469 447.867188 529.722656 447.761719 C 529.601562 447.652344 529.699219 447.601562 529.738281 447.523438 C 529.785156 447.441406 529.878906 447.132812 529.410156 446.5625 C 528.941406 445.992188 528.359375 445.96875 528.09375 445.910156 C 527.828125 445.855469 527.953125 445.425781 528.101562 444.484375 C 528.246094 443.539062 528.507812 442.238281 528.648438 441.398438 C 528.78125 440.558594 528.941406 439.988281 529.316406 439.339844 C 529.683594 438.691406 530.34375 437.96875 531.070312 436.773438 C 531.800781 435.582031 531.789062 435.15625 531.800781 434.933594 C 531.804688 434.703125 531.871094 434.316406 531.898438 434.027344 C 531.929688 433.742188 532.144531 433.105469 532.121094 433.011719 C 532.09375 432.914062 532.125 432.832031 532.125 432.78125 C 532.128906 432.738281 532.214844 432.679688 532.214844 432.679688 C 532.214844 432.679688 532.183594 432.546875 532.179688 432.519531 C 532.167969 432.492188 532.164062 432.449219 532.097656 432.378906 C 532.035156 432.308594 532.175781 432.210938 532.160156 432.085938 C 532.140625 431.960938 532.421875 431.710938 532.417969 431.671875 C 532.414062 431.625 532.367188 431.585938 532.304688 431.484375 C 532.234375 431.386719 532.183594 431.351562 532.183594 431.351562 C 532.183594 431.351562 532.339844 431.261719 532.347656 431.242188 C 532.363281 431.222656 532.34375 431.191406 532.308594 431.101562 C 532.269531 431.011719 532.308594 431.011719 532.320312 430.957031 C 532.328125 430.902344 532.433594 430.851562 532.433594 430.851562 C 532.433594 430.851562 532.398438 430.800781 532.269531 430.6875 C 532.132812 430.574219 532.394531 430.582031 532.457031 430.578125 C 532.519531 430.574219 532.410156 430.523438 532.308594 430.402344 C 532.214844 430.285156 532.3125 430.304688 532.464844 430.308594 C 532.617188 430.3125 532.433594 430.160156 532.386719 430.078125 C 532.34375 430.003906 532.328125 429.824219 532.414062 429.855469 C 532.492188 429.882812 532.648438 430.019531 532.648438 430.019531 C 532.648438 430.019531 532.535156 429.769531 532.429688 429.609375 C 532.324219 429.445312 532.417969 429.433594 532.566406 429.523438 C 532.71875 429.609375 532.847656 429.722656 532.847656 429.722656 C 532.847656 429.722656 532.667969 429.445312 532.5 429.28125 C 532.332031 429.117188 532.453125 429.085938 532.625 429.15625 C 532.792969 429.21875 532.871094 429.390625 532.871094 429.390625 C 532.871094 429.390625 532.734375 429.054688 532.609375 428.976562 C 532.476562 428.894531 532.589844 428.710938 532.652344 428.765625 C 532.722656 428.816406 532.957031 428.90625 532.957031 428.90625 C 532.957031 428.90625 532.898438 428.675781 532.773438 428.578125 C 532.644531 428.476562 532.601562 428.316406 532.722656 428.367188 C 532.847656 428.421875 533.003906 428.613281 533.003906 428.613281 C 533.003906 428.613281 532.90625 428.40625 532.753906 428.277344 C 532.613281 428.164062 532.476562 427.472656 532.457031 427.394531 C 532.46875 427.433594 532.582031 427.535156 532.738281 427.703125 C 532.90625 427.878906 532.949219 428.078125 532.949219 428.078125 C 532.949219 428.078125 533.070312 427.875 532.835938 427.589844 C 532.609375 427.304688 532.726562 427.03125 532.726562 427.03125 C 532.71875 427.273438 533.003906 427.300781 533.003906 427.300781 C 532.726562 427.03125 532.933594 426.015625 532.921875 425.816406 C 532.90625 425.617188 533.265625 425.777344 533.386719 425.914062 C 533.507812 426.046875 533.761719 426.496094 534.652344 426.351562 C 535.546875 426.210938 535.308594 425.886719 535.796875 425.492188 C 536.285156 425.09375 536.304688 424.816406 536.304688 424.816406 C 536.304688 424.816406 536.550781 424.738281 536.734375 424.574219 C 536.917969 424.410156 536.859375 424 536.828125 423.835938 C 536.800781 423.671875 536.539062 423.441406 536.210938 422.964844 C 535.886719 422.484375 535.957031 422.226562 535.957031 421.746094 C 535.960938 421.265625 536 420.707031 535.679688 420.324219 C 535.367188 419.933594 535.023438 419.515625 534.484375 419.257812 C 533.945312 418.996094 533.574219 418.429688 533.453125 418.324219 C 533.320312 418.214844 533.28125 418.035156 533.1875 417.78125 C 533.09375 417.519531 533.113281 417.320312 532.65625 416.242188 C 532.199219 415.160156 531.796875 414.914062 531.75 414.875 C 531.699219 414.839844 531.699219 414.707031 531.710938 414.550781 C 531.726562 414.402344 531.773438 414.121094 531.773438 414.121094 C 531.773438 414.121094 531.679688 414.476562 531.691406 414.367188 C 531.699219 414.257812 531.675781 414.1875 531.730469 414.03125 C 531.78125 413.878906 531.714844 413.839844 531.707031 413.707031 C 531.699219 413.578125 531.679688 413.570312 531.707031 413.484375 C 531.730469 413.394531 531.714844 413.25 531.714844 413.25 C 531.691406 413.328125 531.574219 413.480469 531.585938 413.410156 C 531.59375 413.339844 531.660156 413.019531 531.628906 413.128906 C 531.59375 413.246094 531.5 413.527344 531.476562 413.457031 C 531.449219 413.390625 531.539062 413.03125 531.484375 413.148438 C 531.425781 413.273438 531.460938 413.652344 531.4375 413.519531 C 531.410156 413.390625 531.351562 413.203125 531.351562 413.203125 C 531.351562 413.203125 531.40625 413.472656 531.425781 413.679688 C 531.445312 413.882812 531.371094 414.101562 531.351562 414.046875 C 531.332031 413.992188 531.292969 413.929688 531.292969 413.929688 C 531.3125 414.011719 531.355469 414.445312 531.386719 414.707031 C 531.410156 414.960938 531.191406 415.25 530.863281 415.558594 C 530.527344 415.867188 530.40625 416.238281 530.285156 416.648438 C 530.160156 417.054688 530.105469 417.300781 529.988281 417.496094 C 529.875 417.695312 529.429688 417.855469 528.515625 418.78125 C 527.605469 419.714844 526.671875 421.328125 526.367188 421.851562 C 526.058594 422.378906 525.5625 422.71875 524.664062 423.363281 C 523.761719 424 523.214844 424.4375 522.839844 424.917969 C 522.464844 425.402344 521.972656 425.726562 521.179688 426.03125 C 520.386719 426.332031 519.144531 427.375 518.003906 428.054688 C 516.871094 428.726562 515.332031 429.210938 514.023438 430.773438 C 512.722656 432.339844 510.640625 435.78125 509.578125 438.6875 C 508.515625 441.589844 508.363281 443.355469 508.445312 443.996094 Z M 534.449219 422.644531 C 534.484375 422.519531 534.5625 422.25 534.664062 422.375 C 534.664062 422.375 534.875 422.558594 534.757812 422.667969 C 534.644531 422.773438 534.445312 422.855469 534.445312 422.855469 C 534.445312 422.855469 534.417969 422.765625 534.449219 422.644531 " fill-opacity="1" fill-rule="nonzero"/></g></svg>