<?xml version="1.0" standalone="no"?>
<!DOCTYPE svg PUBLIC "-//W3C//DTD SVG 20010904//EN"
 "http://www.w3.org/TR/2001/REC-SVG-20010904/DTD/svg10.dtd">
<svg version="1.0" xmlns="http://www.w3.org/2000/svg"
 width="512.000000pt" height="512.000000pt" viewBox="0 0 512.000000 512.000000"
 preserveAspectRatio="xMidYMid meet">
<metadata>
Created by potrace 1.14, written by Peter Selinger 2001-2017
</metadata>
<g transform="translate(0.000000,512.000000) scale(0.100000,-0.100000)"
fill="#000000" stroke="none">
<path d="M3550 4700 c-6 -11 -8 -31 -4 -44 3 -14 2 -31 -2 -38 -5 -7 -7 -37
-5 -66 3 -50 1 -54 -43 -102 -38 -44 -86 -138 -86 -171 0 -17 -40 -89 -49 -89
-5 0 -47 -35 -92 -77 -92 -87 -164 -179 -257 -330 -66 -108 -108 -148 -269
-260 -37 -26 -101 -81 -140 -121 -73 -74 -147 -131 -171 -132 -21 0 -119 -59
-264 -157 -76 -51 -170 -109 -210 -129 -195 -97 -300 -174 -389 -285 -174
-215 -396 -617 -497 -899 -92 -257 -125 -420 -121 -600 2 -63 -1 -182 -5 -265
-11 -191 0 -250 55 -309 21 -23 62 -54 91 -69 29 -15 78 -47 108 -72 30 -25
62 -45 70 -45 9 0 20 -4 26 -10 23 -23 161 -34 286 -22 68 7 193 19 278 27 85
9 247 20 360 25 222 9 273 20 351 69 40 26 50 39 73 98 14 38 26 77 26 87 0
11 -18 36 -40 57 -22 21 -40 47 -40 58 0 13 -19 35 -49 58 -28 21 -50 42 -50
47 -1 5 10 19 24 32 21 20 24 27 15 44 -8 16 -8 20 3 20 10 0 17 27 27 93 7
50 12 105 11 121 0 16 8 43 19 60 14 24 16 35 8 50 -9 16 -8 18 5 13 11 -4 19
5 29 36 8 25 19 42 28 42 13 0 16 -29 22 -175 3 -96 11 -191 16 -210 28 -93
52 -195 52 -216 0 -13 14 -39 30 -58 17 -19 37 -57 45 -84 17 -56 92 -164 127
-183 13 -7 73 -15 133 -17 100 -4 119 -1 214 26 85 25 111 37 142 68 57 56 55
93 -12 156 -36 36 -48 54 -44 68 17 54 -64 150 -148 175 -40 11 -57 21 -57 33
0 33 22 179 51 327 15 83 31 168 34 190 11 78 47 164 100 241 30 44 81 117
114 164 92 134 121 199 137 309 7 53 20 128 29 166 8 39 12 85 9 103 -4 20 -1
38 7 49 8 9 15 43 16 77 2 67 6 92 15 102 4 3 4 12 2 19 -3 7 -1 16 5 19 6 4
7 14 4 23 -5 12 -2 15 9 11 12 -5 15 1 13 31 -1 21 -5 43 -9 50 -4 6 -1 11 7
11 20 0 28 48 11 65 -16 16 -19 39 -4 30 18 -11 23 25 6 50 -20 30 -20 35 -1
35 12 0 13 5 4 27 -11 29 -3 143 10 143 5 0 16 -9 27 -21 43 -47 133 -64 196
-36 26 11 148 139 148 155 0 4 13 14 29 23 57 33 50 91 -24 193 -34 47 -35 51
-35 140 0 78 -4 100 -25 142 -28 56 -75 104 -156 160 -86 60 -115 99 -155 215
-42 120 -82 203 -121 249 -22 27 -28 45 -29 84 -2 117 -4 125 -24 136 -15 8
-21 6 -30 -10z"/>
</g>
</svg>
