<svg xmlns="http://www.w3.org/2000/svg" xmlns:xlink="http://www.w3.org/1999/xlink" zoomAndPan="magnify" preserveAspectRatio="xMidYMid meet" version="1.0" viewBox="51.35 72.2 72.6 95.55"><defs><g/><clipPath id="6d9dc52a6b"><path d="M 98.753906 133.703125 L 124 133.703125 L 124 167.453125 L 98.753906 167.453125 Z M 98.753906 133.703125 " clip-rule="nonzero"/></clipPath></defs><path fill="#ffffff" d="M 121.96875 142.019531 C 121.984375 142.023438 121.996094 142.070312 121.992188 142.128906 C 121.988281 142.191406 121.976562 142.238281 121.960938 142.238281 C 121.945312 142.238281 121.9375 142.191406 121.9375 142.128906 C 121.941406 142.070312 121.953125 142.019531 121.96875 142.019531 " fill-opacity="1" fill-rule="nonzero"/><g clip-path="url(#6d9dc52a6b)"><path fill="#ffffff" d="M 98.914062 161 C 98.988281 161.558594 98.945312 162.632812 98.851562 163.34375 C 98.753906 164.054688 98.917969 164.835938 98.917969 164.835938 C 99.011719 165.546875 99.746094 165.933594 99.933594 166.023438 C 100.117188 166.117188 100.402344 166.234375 100.96875 166.726562 C 101.53125 167.21875 102.714844 167.347656 103.539062 167.226562 C 104.367188 167.101562 105.742188 167.101562 106.980469 166.917969 C 108.222656 166.738281 108.761719 166.839844 109.847656 166.761719 C 110.933594 166.683594 111.25 166.324219 111.472656 166.226562 C 111.691406 166.125 111.9375 165.714844 111.960938 165.492188 C 111.988281 165.269531 112.09375 165.21875 112.132812 164.886719 C 112.175781 164.554688 111.511719 164.273438 111.511719 164.273438 C 111.511719 164.273438 111.566406 164.152344 111.507812 163.945312 C 111.445312 163.738281 111.304688 163.695312 111.101562 163.542969 C 110.902344 163.390625 110.785156 163.277344 110.691406 163.195312 C 110.597656 163.113281 111.105469 162.792969 111.128906 162.765625 C 111.15625 162.734375 111.128906 162.765625 111.125 162.714844 C 111.121094 162.667969 111 162.519531 110.972656 162.425781 C 110.945312 162.332031 111.242188 162.410156 111.226562 162.34375 C 111.210938 162.277344 111.164062 162.105469 111.164062 162.085938 C 111.164062 162.070312 111.273438 162.097656 111.273438 162.097656 C 111.273438 162.097656 111.261719 162.066406 111.199219 161.945312 C 111.136719 161.820312 111.140625 161.863281 111.015625 161.707031 C 110.886719 161.550781 111.1875 161.714844 111.269531 161.789062 C 111.351562 161.863281 111.394531 161.542969 111.25 161.320312 C 111.105469 161.097656 111.382812 161.222656 111.402344 161.164062 C 111.421875 161.105469 111.351562 161.089844 111.246094 160.976562 C 111.140625 160.863281 111.292969 160.960938 111.402344 160.921875 C 111.515625 160.882812 111.410156 160.878906 111.3125 160.78125 C 111.210938 160.679688 111.3125 160.71875 111.375 160.683594 C 111.4375 160.652344 111.304688 160.660156 111.203125 160.558594 C 111.105469 160.457031 111.449219 160.515625 111.4375 160.476562 C 111.425781 160.433594 111.402344 160.414062 111.339844 160.308594 C 111.277344 160.203125 111.425781 160.261719 111.554688 160.261719 C 111.679688 160.257812 111.460938 160.117188 111.394531 159.960938 C 111.328125 159.800781 111.542969 160 111.609375 160.046875 C 111.675781 160.089844 111.585938 160 111.535156 159.84375 C 111.488281 159.683594 111.777344 159.386719 111.707031 159.515625 C 111.632812 159.648438 111.789062 159.765625 111.789062 159.765625 C 111.789062 159.765625 111.789062 159.683594 111.875 159.351562 C 111.957031 159.023438 112.398438 159.054688 112.402344 159.339844 C 112.402344 159.625 112.402344 159.679688 112.367188 160.671875 C 112.335938 161.660156 112.539062 162.214844 112.609375 162.421875 C 112.683594 162.628906 112.902344 163.507812 112.953125 163.976562 C 113.003906 164.441406 113.425781 164.414062 113.414062 164.609375 C 113.402344 164.800781 113.757812 165.691406 113.984375 165.808594 C 114.210938 165.925781 114.050781 166.15625 114.527344 166.371094 C 115.003906 166.585938 116.097656 166.605469 116.546875 166.441406 C 116.996094 166.273438 117.285156 166.230469 117.75 166.070312 C 118.214844 165.910156 118.570312 165.433594 118.433594 165.039062 C 118.296875 164.648438 117.773438 164.414062 117.660156 164.316406 C 117.546875 164.222656 117.632812 164.175781 117.671875 164.105469 C 117.710938 164.035156 117.792969 163.765625 117.378906 163.261719 C 116.96875 162.757812 116.453125 162.738281 116.222656 162.691406 C 115.988281 162.640625 116.097656 162.261719 116.226562 161.429688 C 116.359375 160.601562 116.585938 159.453125 116.707031 158.710938 C 116.828125 157.972656 116.96875 157.46875 117.296875 156.898438 C 117.621094 156.328125 118.203125 155.6875 118.84375 154.640625 C 119.484375 153.589844 119.476562 153.214844 119.484375 153.015625 C 119.492188 152.816406 119.546875 152.472656 119.574219 152.21875 C 119.601562 151.96875 119.789062 151.410156 119.765625 151.324219 C 119.746094 151.242188 119.773438 151.167969 119.773438 151.125 C 119.773438 151.082031 119.847656 151.03125 119.847656 151.03125 C 119.847656 151.03125 119.824219 150.914062 119.816406 150.890625 C 119.8125 150.867188 119.808594 150.832031 119.75 150.769531 C 119.691406 150.707031 119.816406 150.621094 119.800781 150.507812 C 119.785156 150.398438 120.035156 150.179688 120.03125 150.140625 C 120.027344 150.105469 119.984375 150.066406 119.925781 149.980469 C 119.871094 149.894531 119.824219 149.863281 119.824219 149.863281 C 119.824219 149.863281 119.957031 149.78125 119.972656 149.765625 C 119.984375 149.746094 119.964844 149.722656 119.933594 149.644531 C 119.898438 149.5625 119.933594 149.5625 119.941406 149.515625 C 119.949219 149.46875 120.042969 149.421875 120.042969 149.421875 C 120.042969 149.421875 120.015625 149.378906 119.898438 149.277344 C 119.78125 149.179688 120.007812 149.183594 120.0625 149.179688 C 120.117188 149.175781 120.023438 149.132812 119.9375 149.027344 C 119.847656 148.921875 119.9375 148.941406 120.070312 148.945312 C 120.203125 148.949219 120.046875 148.8125 120.003906 148.742188 C 119.964844 148.675781 119.953125 148.519531 120.023438 148.542969 C 120.097656 148.570312 120.230469 148.691406 120.230469 148.691406 C 120.230469 148.691406 120.128906 148.46875 120.039062 148.328125 C 119.945312 148.183594 120.03125 148.175781 120.160156 148.253906 C 120.292969 148.328125 120.410156 148.429688 120.410156 148.429688 C 120.410156 148.429688 120.25 148.183594 120.101562 148.039062 C 119.957031 147.894531 120.058594 147.867188 120.207031 147.925781 C 120.359375 147.988281 120.433594 148.136719 120.433594 148.136719 C 120.433594 148.136719 120.308594 147.839844 120.195312 147.769531 C 120.082031 147.699219 120.179688 147.539062 120.238281 147.582031 C 120.296875 147.628906 120.507812 147.707031 120.507812 147.707031 C 120.507812 147.707031 120.453125 147.507812 120.34375 147.417969 C 120.230469 147.328125 120.191406 147.1875 120.300781 147.234375 C 120.40625 147.28125 120.546875 147.449219 120.546875 147.449219 C 120.546875 147.449219 120.460938 147.269531 120.324219 147.15625 C 120.199219 147.050781 120.082031 146.449219 120.066406 146.378906 C 120.074219 146.410156 120.175781 146.5 120.3125 146.648438 C 120.460938 146.804688 120.496094 146.980469 120.496094 146.980469 C 120.496094 146.980469 120.605469 146.796875 120.402344 146.546875 C 120.199219 146.300781 120.304688 146.054688 120.304688 146.054688 C 120.296875 146.273438 120.542969 146.292969 120.542969 146.292969 C 120.304688 146.054688 120.484375 145.164062 120.472656 144.988281 C 120.460938 144.8125 120.777344 144.953125 120.882812 145.070312 C 120.988281 145.1875 121.214844 145.582031 122 145.460938 C 122.785156 145.335938 122.578125 145.050781 123.003906 144.699219 C 123.433594 144.351562 123.457031 144.105469 123.457031 144.105469 C 123.457031 144.105469 123.667969 144.039062 123.832031 143.894531 C 123.996094 143.75 123.941406 143.390625 123.914062 143.242188 C 123.890625 143.097656 123.660156 142.894531 123.371094 142.472656 C 123.082031 142.054688 123.144531 141.824219 123.148438 141.402344 C 123.152344 140.976562 123.1875 140.488281 122.90625 140.148438 C 122.628906 139.804688 122.324219 139.4375 121.851562 139.210938 C 121.375 138.980469 121.050781 138.480469 120.941406 138.386719 C 120.828125 138.292969 120.792969 138.132812 120.707031 137.90625 C 120.625 137.679688 120.644531 137.503906 120.238281 136.550781 C 119.835938 135.601562 119.480469 135.382812 119.441406 135.351562 C 119.398438 135.320312 119.398438 135.199219 119.40625 135.066406 C 119.417969 134.933594 119.460938 134.6875 119.460938 134.6875 C 119.460938 134.6875 119.378906 135 119.390625 134.902344 C 119.398438 134.804688 119.375 134.746094 119.421875 134.605469 C 119.46875 134.46875 119.410156 134.4375 119.402344 134.320312 C 119.398438 134.207031 119.382812 134.199219 119.402344 134.121094 C 119.421875 134.042969 119.410156 133.917969 119.410156 133.917969 C 119.390625 133.988281 119.289062 134.117188 119.296875 134.058594 C 119.304688 133.996094 119.363281 133.714844 119.335938 133.8125 C 119.308594 133.910156 119.21875 134.164062 119.199219 134.101562 C 119.175781 134.042969 119.257812 133.722656 119.207031 133.832031 C 119.15625 133.9375 119.1875 134.273438 119.164062 134.15625 C 119.144531 134.039062 119.089844 133.875 119.089844 133.875 C 119.089844 133.875 119.136719 134.113281 119.15625 134.296875 C 119.171875 134.476562 119.105469 134.667969 119.089844 134.617188 C 119.074219 134.570312 119.039062 134.515625 119.039062 134.515625 C 119.054688 134.585938 119.09375 134.972656 119.121094 135.199219 C 119.144531 135.425781 118.949219 135.675781 118.660156 135.949219 C 118.367188 136.222656 118.257812 136.550781 118.148438 136.910156 C 118.042969 137.269531 117.992188 137.484375 117.890625 137.660156 C 117.789062 137.832031 117.394531 137.972656 116.59375 138.792969 C 115.789062 139.613281 114.96875 141.03125 114.699219 141.496094 C 114.429688 141.957031 113.996094 142.257812 113.199219 142.824219 C 112.40625 143.390625 111.921875 143.773438 111.59375 144.195312 C 111.261719 144.621094 110.832031 144.910156 110.128906 145.175781 C 109.433594 145.441406 108.335938 146.359375 107.335938 146.957031 C 106.335938 147.550781 104.976562 147.976562 103.828125 149.355469 C 102.679688 150.730469 100.847656 153.765625 99.910156 156.324219 C 98.976562 158.882812 98.839844 160.4375 98.914062 161 Z M 121.820312 142.191406 C 121.847656 142.082031 121.921875 141.84375 122.011719 141.957031 C 122.011719 141.957031 122.191406 142.121094 122.09375 142.214844 C 121.992188 142.304688 121.8125 142.378906 121.8125 142.378906 C 121.8125 142.378906 121.792969 142.300781 121.820312 142.191406 " fill-opacity="1" fill-rule="nonzero"/></g><g fill="#ffffff" fill-opacity="1"><g transform="translate(43.986656, 167.736846)"><g><path d="M 28.046875 -17.421875 L 50.640625 -17.421875 L 50.640625 0 L 7.375 0 L 7.375 -95.53125 L 28.046875 -95.53125 Z M 28.046875 -17.421875 "/></g></g></g></svg>