<svg xmlns="http://www.w3.org/2000/svg" xmlns:xlink="http://www.w3.org/1999/xlink" zoomAndPan="magnify" preserveAspectRatio="xMidYMid meet" version="1.0" viewBox="51.35 72.2 72.88 95.55"><defs><g/><clipPath id="65ae3c8a0c"><path d="M 98.753906 133.703125 L 124.253906 133.703125 L 124.253906 167.453125 L 98.753906 167.453125 Z M 98.753906 133.703125 " clip-rule="nonzero"/></clipPath></defs><path fill="#000000" d="M 122.207031 142.042969 C 122.222656 142.042969 122.230469 142.09375 122.230469 142.152344 C 122.226562 142.214844 122.214844 142.261719 122.199219 142.261719 C 122.183594 142.261719 122.171875 142.214844 122.175781 142.152344 C 122.175781 142.09375 122.191406 142.042969 122.207031 142.042969 " fill-opacity="1" fill-rule="nonzero"/><g clip-path="url(#65ae3c8a0c)"><path fill="#000000" d="M 98.914062 161.074219 C 98.988281 161.636719 98.949219 162.714844 98.851562 163.425781 C 98.753906 164.140625 98.921875 164.921875 98.921875 164.921875 C 99.011719 165.632812 99.757812 166.023438 99.945312 166.113281 C 100.128906 166.207031 100.417969 166.324219 100.988281 166.816406 C 101.558594 167.3125 102.753906 167.441406 103.589844 167.320312 C 104.425781 167.195312 105.8125 167.195312 107.066406 167.011719 C 108.320312 166.828125 108.867188 166.933594 109.960938 166.855469 C 111.058594 166.777344 111.378906 166.417969 111.601562 166.316406 C 111.824219 166.214844 112.070312 165.804688 112.097656 165.578125 C 112.121094 165.355469 112.226562 165.304688 112.269531 164.972656 C 112.3125 164.640625 111.644531 164.355469 111.644531 164.355469 C 111.644531 164.355469 111.695312 164.238281 111.636719 164.027344 C 111.578125 163.820312 111.429688 163.777344 111.226562 163.628906 C 111.027344 163.476562 110.90625 163.359375 110.8125 163.277344 C 110.71875 163.195312 111.230469 162.875 111.253906 162.84375 C 111.28125 162.816406 111.253906 162.84375 111.25 162.796875 C 111.246094 162.746094 111.125 162.597656 111.097656 162.503906 C 111.070312 162.414062 111.371094 162.492188 111.355469 162.421875 C 111.339844 162.355469 111.289062 162.183594 111.292969 162.167969 C 111.292969 162.148438 111.402344 162.175781 111.402344 162.175781 C 111.402344 162.175781 111.390625 162.144531 111.328125 162.023438 C 111.261719 161.898438 111.269531 161.941406 111.140625 161.785156 C 111.007812 161.628906 111.316406 161.792969 111.398438 161.867188 C 111.480469 161.941406 111.523438 161.621094 111.378906 161.398438 C 111.234375 161.175781 111.511719 161.300781 111.53125 161.238281 C 111.550781 161.179688 111.476562 161.164062 111.371094 161.054688 C 111.265625 160.941406 111.421875 161.035156 111.53125 160.996094 C 111.644531 160.957031 111.539062 160.957031 111.441406 160.855469 C 111.339844 160.753906 111.441406 160.792969 111.503906 160.761719 C 111.566406 160.726562 111.433594 160.734375 111.332031 160.632812 C 111.230469 160.53125 111.578125 160.59375 111.566406 160.550781 C 111.554688 160.507812 111.53125 160.488281 111.46875 160.382812 C 111.40625 160.277344 111.554688 160.335938 111.683594 160.335938 C 111.8125 160.332031 111.589844 160.191406 111.523438 160.03125 C 111.457031 159.871094 111.675781 160.074219 111.738281 160.117188 C 111.804688 160.164062 111.71875 160.074219 111.667969 159.917969 C 111.617188 159.757812 111.910156 159.457031 111.839844 159.585938 C 111.765625 159.71875 111.921875 159.839844 111.921875 159.839844 C 111.921875 159.839844 111.925781 159.753906 112.007812 159.425781 C 112.09375 159.09375 112.539062 159.125 112.542969 159.410156 C 112.542969 159.695312 112.542969 159.75 112.507812 160.746094 C 112.472656 161.738281 112.679688 162.292969 112.753906 162.5 C 112.824219 162.710938 113.046875 163.589844 113.097656 164.058594 C 113.148438 164.527344 113.578125 164.5 113.5625 164.695312 C 113.550781 164.886719 113.910156 165.78125 114.140625 165.898438 C 114.367188 166.015625 114.207031 166.246094 114.6875 166.460938 C 115.171875 166.679688 116.277344 166.699219 116.726562 166.53125 C 117.179688 166.363281 117.476562 166.320312 117.945312 166.160156 C 118.414062 166 118.773438 165.519531 118.636719 165.128906 C 118.496094 164.734375 117.964844 164.496094 117.851562 164.402344 C 117.738281 164.308594 117.828125 164.261719 117.867188 164.191406 C 117.90625 164.121094 117.988281 163.847656 117.570312 163.34375 C 117.15625 162.839844 116.636719 162.820312 116.398438 162.769531 C 116.164062 162.71875 116.273438 162.339844 116.40625 161.507812 C 116.539062 160.675781 116.765625 159.523438 116.890625 158.78125 C 117.011719 158.039062 117.152344 157.535156 117.484375 156.964844 C 117.816406 156.390625 118.402344 155.75 119.046875 154.699219 C 119.695312 153.648438 119.691406 153.269531 119.695312 153.070312 C 119.703125 152.871094 119.757812 152.527344 119.785156 152.273438 C 119.8125 152.019531 120.003906 151.460938 119.980469 151.375 C 119.960938 151.289062 119.988281 151.214844 119.988281 151.175781 C 119.988281 151.132812 120.066406 151.082031 120.066406 151.082031 C 120.066406 151.082031 120.039062 150.964844 120.035156 150.9375 C 120.027344 150.914062 120.023438 150.878906 119.964844 150.816406 C 119.90625 150.753906 120.03125 150.667969 120.015625 150.554688 C 120 150.445312 120.253906 150.226562 120.25 150.1875 C 120.242188 150.152344 120.203125 150.113281 120.144531 150.027344 C 120.085938 149.941406 120.039062 149.90625 120.039062 149.90625 C 120.039062 149.90625 120.175781 149.828125 120.1875 149.808594 C 120.199219 149.792969 120.183594 149.765625 120.148438 149.6875 C 120.113281 149.605469 120.152344 149.609375 120.160156 149.558594 C 120.167969 149.511719 120.261719 149.464844 120.261719 149.464844 C 120.261719 149.464844 120.230469 149.421875 120.113281 149.320312 C 119.996094 149.222656 120.226562 149.226562 120.28125 149.226562 C 120.335938 149.21875 120.242188 149.175781 120.152344 149.066406 C 120.0625 148.960938 120.15625 148.984375 120.289062 148.988281 C 120.421875 148.992188 120.261719 148.855469 120.222656 148.785156 C 120.183594 148.71875 120.167969 148.558594 120.242188 148.585938 C 120.3125 148.613281 120.453125 148.730469 120.453125 148.730469 C 120.453125 148.730469 120.347656 148.511719 120.253906 148.367188 C 120.164062 148.226562 120.25 148.214844 120.378906 148.292969 C 120.511719 148.371094 120.632812 148.472656 120.632812 148.472656 C 120.632812 148.472656 120.46875 148.222656 120.320312 148.078125 C 120.171875 147.933594 120.277344 147.90625 120.429688 147.96875 C 120.578125 148.027344 120.652344 148.175781 120.652344 148.175781 C 120.652344 148.175781 120.527344 147.878906 120.414062 147.808594 C 120.300781 147.738281 120.398438 147.578125 120.457031 147.621094 C 120.519531 147.667969 120.730469 147.746094 120.730469 147.746094 C 120.730469 147.746094 120.675781 147.542969 120.5625 147.457031 C 120.449219 147.367188 120.410156 147.226562 120.519531 147.273438 C 120.628906 147.320312 120.769531 147.488281 120.769531 147.488281 C 120.769531 147.488281 120.683594 147.308594 120.546875 147.195312 C 120.417969 147.089844 120.300781 146.484375 120.28125 146.414062 C 120.292969 146.445312 120.394531 146.539062 120.535156 146.683594 C 120.679688 146.839844 120.71875 147.019531 120.71875 147.019531 C 120.71875 147.019531 120.828125 146.832031 120.621094 146.585938 C 120.417969 146.335938 120.523438 146.089844 120.523438 146.089844 C 120.515625 146.308594 120.765625 146.328125 120.765625 146.328125 C 120.523438 146.089844 120.707031 145.199219 120.695312 145.019531 C 120.683594 144.84375 121 144.984375 121.109375 145.101562 C 121.214844 145.21875 121.445312 145.617188 122.238281 145.492188 C 123.03125 145.367188 122.820312 145.082031 123.253906 144.730469 C 123.6875 144.382812 123.707031 144.132812 123.707031 144.132812 C 123.707031 144.132812 123.925781 144.070312 124.089844 143.921875 C 124.253906 143.777344 124.199219 143.417969 124.171875 143.269531 C 124.144531 143.125 123.914062 142.921875 123.625 142.5 C 123.332031 142.078125 123.394531 141.847656 123.398438 141.421875 C 123.398438 141 123.433594 140.507812 123.152344 140.164062 C 122.871094 139.820312 122.566406 139.453125 122.085938 139.226562 C 121.605469 138.996094 121.28125 138.492188 121.167969 138.398438 C 121.054688 138.304688 121.015625 138.144531 120.933594 137.917969 C 120.847656 137.691406 120.867188 137.515625 120.460938 136.5625 C 120.050781 135.605469 119.691406 135.386719 119.652344 135.355469 C 119.609375 135.324219 119.609375 135.203125 119.617188 135.070312 C 119.628906 134.9375 119.675781 134.6875 119.675781 134.6875 C 119.675781 134.6875 119.589844 135.003906 119.597656 134.90625 C 119.609375 134.808594 119.585938 134.746094 119.632812 134.609375 C 119.679688 134.472656 119.621094 134.4375 119.613281 134.324219 C 119.609375 134.207031 119.59375 134.199219 119.613281 134.121094 C 119.636719 134.042969 119.621094 133.917969 119.621094 133.917969 C 119.601562 133.988281 119.496094 134.121094 119.507812 134.058594 C 119.515625 134 119.574219 133.714844 119.546875 133.8125 C 119.515625 133.910156 119.429688 134.164062 119.40625 134.105469 C 119.382812 134.042969 119.46875 133.722656 119.417969 133.832031 C 119.363281 133.9375 119.394531 134.273438 119.375 134.15625 C 119.351562 134.042969 119.296875 133.875 119.296875 133.875 C 119.296875 133.875 119.34375 134.113281 119.363281 134.296875 C 119.382812 134.480469 119.3125 134.671875 119.296875 134.621094 C 119.28125 134.574219 119.246094 134.515625 119.246094 134.515625 C 119.261719 134.589844 119.304688 134.976562 119.328125 135.203125 C 119.351562 135.429688 119.15625 135.683594 118.863281 135.957031 C 118.566406 136.230469 118.457031 136.558594 118.347656 136.917969 C 118.238281 137.277344 118.191406 137.496094 118.085938 137.667969 C 117.984375 137.84375 117.585938 137.984375 116.777344 138.804688 C 115.964844 139.628906 115.132812 141.050781 114.859375 141.515625 C 114.589844 141.980469 114.148438 142.28125 113.347656 142.847656 C 112.546875 143.417969 112.054688 143.800781 111.722656 144.226562 C 111.390625 144.652344 110.953125 144.941406 110.246094 145.207031 C 109.542969 145.476562 108.433594 146.394531 107.421875 146.992188 C 106.414062 147.589844 105.039062 148.015625 103.878906 149.398438 C 102.71875 150.777344 100.867188 153.820312 99.925781 156.386719 C 98.980469 158.953125 98.839844 160.515625 98.914062 161.074219 Z M 122.054688 142.214844 C 122.085938 142.105469 122.15625 141.867188 122.246094 141.980469 C 122.246094 141.980469 122.429688 142.144531 122.332031 142.238281 C 122.230469 142.332031 122.050781 142.402344 122.050781 142.402344 C 122.050781 142.402344 122.027344 142.324219 122.054688 142.214844 " fill-opacity="1" fill-rule="nonzero"/></g><g fill="#000000" fill-opacity="1"><g transform="translate(43.986656, 167.736846)"><g><path d="M 28.046875 -17.421875 L 50.640625 -17.421875 L 50.640625 0 L 7.375 0 L 7.375 -95.53125 L 28.046875 -95.53125 Z M 28.046875 -17.421875 "/></g></g></g></svg>