<svg xmlns="http://www.w3.org/2000/svg" xmlns:xlink="http://www.w3.org/1999/xlink" zoomAndPan="magnify" preserveAspectRatio="xMidYMid meet" version="1.0" viewBox="53.62 53.78 176.55 90.82"><defs><g/><clipPath id="fb5cd42217"><path d="M 207.601562 95.503906 L 230.039062 95.503906 L 230.039062 125.421875 L 207.601562 125.421875 Z M 207.601562 95.503906 " clip-rule="nonzero"/></clipPath></defs><g fill="#ffffff" fill-opacity="1"><g transform="translate(48.617068, 125.796049)"><g><path d="M 19.90625 0 L 5 0 L 5 -71.984375 L 19.90625 -71.984375 Z M 19.90625 0 "/></g></g></g><g fill="#ffffff" fill-opacity="1"><g transform="translate(67.417016, 125.796049)"><g><path d="M 30.265625 -54.296875 L 45.171875 -54.296875 L 45.171875 4.109375 C 45.171875 13.898438 40.570312 18.796875 31.375 18.796875 L 20.25 18.796875 C 11.050781 18.796875 6.453125 13.898438 6.453125 4.109375 L 6.453125 2.34375 L 20.921875 2.34375 L 20.921875 5.890625 C 20.921875 6.484375 21.125 7.003906 21.53125 7.453125 C 21.9375 7.898438 22.4375 8.125 23.03125 8.125 L 28.140625 8.125 C 28.734375 8.125 29.234375 7.898438 29.640625 7.453125 C 30.054688 7.003906 30.265625 6.484375 30.265625 5.890625 L 30.265625 -5.125 C 28.035156 -3.34375 24.992188 -2.453125 21.140625 -2.453125 L 18.796875 -2.453125 C 9.597656 -2.453125 5 -7.34375 5 -17.125 L 5 -54.296875 L 19.90625 -54.296875 L 19.90625 -15.359375 C 19.90625 -14.765625 20.109375 -14.242188 20.515625 -13.796875 C 20.929688 -13.347656 21.4375 -13.125 22.03125 -13.125 L 28.140625 -13.125 C 28.734375 -13.125 29.234375 -13.347656 29.640625 -13.796875 C 30.054688 -14.242188 30.265625 -14.765625 30.265625 -15.359375 Z M 30.265625 -54.296875 "/></g></g></g><g fill="#ffffff" fill-opacity="1"><g transform="translate(111.580818, 125.796049)"><g><path d="M 19.90625 0 L 5 0 L 5 -54.296875 L 18.578125 -54.296875 L 18.578125 -51.515625 C 20.878906 -54.109375 24.363281 -55.40625 29.03125 -55.40625 L 31.375 -55.40625 C 40.570312 -55.40625 45.171875 -50.507812 45.171875 -40.71875 L 45.171875 0 L 30.265625 0 L 30.265625 -42.5 C 30.265625 -43.09375 30.054688 -43.609375 29.640625 -44.046875 C 29.234375 -44.492188 28.734375 -44.71875 28.140625 -44.71875 L 22.03125 -44.71875 C 21.4375 -44.71875 20.929688 -44.492188 20.515625 -44.046875 C 20.109375 -43.609375 19.90625 -43.09375 19.90625 -42.5 Z M 19.90625 0 "/></g></g></g><g fill="#ffffff" fill-opacity="1"><g transform="translate(155.744621, 125.796049)"><g><path d="M 24.140625 -17.796875 L 15.90625 0 L 0.4375 0 L 15.578125 -28.921875 L 1.453125 -54.296875 L 17.6875 -54.296875 L 24.140625 -38.046875 L 30.59375 -54.296875 L 46.84375 -54.296875 L 32.703125 -28.921875 L 47.84375 0 L 32.375 0 Z M 24.140625 -17.796875 "/></g></g></g><path fill="#ffffff" d="M 228.390625 102.953125 C 228.402344 102.953125 228.410156 102.996094 228.410156 103.050781 C 228.40625 103.105469 228.394531 103.148438 228.382812 103.148438 C 228.367188 103.148438 228.359375 103.105469 228.359375 103.050781 C 228.363281 102.996094 228.375 102.953125 228.390625 102.953125 " fill-opacity="1" fill-rule="nonzero"/><g clip-path="url(#fb5cd42217)"><path fill="#ffffff" d="M 207.746094 119.945312 C 207.8125 120.445312 207.777344 121.40625 207.6875 122.042969 C 207.601562 122.679688 207.75 123.378906 207.75 123.378906 C 207.832031 124.015625 208.492188 124.363281 208.660156 124.445312 C 208.824219 124.527344 209.078125 124.632812 209.585938 125.074219 C 210.089844 125.511719 211.148438 125.628906 211.886719 125.519531 C 212.628906 125.410156 213.859375 125.40625 214.96875 125.246094 C 216.082031 125.082031 216.566406 125.175781 217.539062 125.105469 C 218.507812 125.035156 218.792969 124.714844 218.988281 124.625 C 219.1875 124.535156 219.40625 124.167969 219.429688 123.96875 C 219.453125 123.765625 219.546875 123.722656 219.582031 123.425781 C 219.621094 123.128906 219.027344 122.875 219.027344 122.875 C 219.027344 122.875 219.074219 122.769531 219.019531 122.582031 C 218.96875 122.398438 218.839844 122.359375 218.660156 122.222656 C 218.480469 122.085938 218.375 121.984375 218.289062 121.914062 C 218.207031 121.839844 218.660156 121.550781 218.683594 121.523438 C 218.707031 121.5 218.683594 121.523438 218.679688 121.480469 C 218.675781 121.4375 218.566406 121.304688 218.542969 121.222656 C 218.519531 121.140625 218.785156 121.210938 218.773438 121.148438 C 218.757812 121.089844 218.714844 120.9375 218.714844 120.917969 C 218.714844 120.902344 218.8125 120.929688 218.8125 120.929688 C 218.8125 120.929688 218.800781 120.902344 218.746094 120.789062 C 218.691406 120.679688 218.695312 120.71875 218.582031 120.578125 C 218.464844 120.441406 218.738281 120.585938 218.8125 120.652344 C 218.882812 120.71875 218.921875 120.433594 218.792969 120.234375 C 218.664062 120.035156 218.910156 120.144531 218.925781 120.09375 C 218.945312 120.039062 218.882812 120.027344 218.785156 119.925781 C 218.691406 119.824219 218.832031 119.910156 218.929688 119.875 C 219.027344 119.839844 218.9375 119.839844 218.847656 119.75 C 218.757812 119.660156 218.847656 119.695312 218.90625 119.664062 C 218.960938 119.632812 218.839844 119.640625 218.75 119.550781 C 218.660156 119.460938 218.96875 119.515625 218.960938 119.476562 C 218.949219 119.4375 218.929688 119.421875 218.871094 119.328125 C 218.816406 119.234375 218.949219 119.285156 219.0625 119.285156 C 219.175781 119.28125 218.980469 119.15625 218.921875 119.015625 C 218.859375 118.871094 219.054688 119.050781 219.113281 119.089844 C 219.171875 119.132812 219.09375 119.050781 219.046875 118.910156 C 219.003906 118.769531 219.261719 118.5 219.199219 118.617188 C 219.136719 118.734375 219.273438 118.84375 219.273438 118.84375 C 219.273438 118.84375 219.277344 118.765625 219.351562 118.472656 C 219.425781 118.175781 219.820312 118.207031 219.824219 118.460938 C 219.824219 118.714844 219.824219 118.761719 219.792969 119.652344 C 219.761719 120.539062 219.945312 121.03125 220.011719 121.21875 C 220.074219 121.40625 220.269531 122.191406 220.316406 122.609375 C 220.359375 123.027344 220.742188 123.003906 220.730469 123.175781 C 220.71875 123.351562 221.039062 124.148438 221.238281 124.25 C 221.441406 124.355469 221.300781 124.5625 221.726562 124.753906 C 222.152344 124.949219 223.132812 124.964844 223.535156 124.816406 C 223.933594 124.667969 224.195312 124.628906 224.613281 124.484375 C 225.027344 124.34375 225.347656 123.914062 225.222656 123.5625 C 225.101562 123.210938 224.632812 123 224.53125 122.917969 C 224.429688 122.832031 224.507812 122.789062 224.542969 122.726562 C 224.578125 122.664062 224.652344 122.421875 224.28125 121.972656 C 223.910156 121.519531 223.453125 121.503906 223.242188 121.457031 C 223.03125 121.414062 223.128906 121.074219 223.25 120.332031 C 223.367188 119.589844 223.570312 118.558594 223.675781 117.898438 C 223.785156 117.234375 223.910156 116.785156 224.203125 116.273438 C 224.496094 115.765625 225.015625 115.191406 225.589844 114.25 C 226.164062 113.3125 226.160156 112.976562 226.164062 112.796875 C 226.171875 112.617188 226.21875 112.3125 226.242188 112.085938 C 226.269531 111.859375 226.4375 111.359375 226.417969 111.285156 C 226.398438 111.207031 226.421875 111.144531 226.421875 111.105469 C 226.425781 111.066406 226.492188 111.019531 226.492188 111.019531 C 226.492188 111.019531 226.46875 110.917969 226.464844 110.894531 C 226.457031 110.875 226.453125 110.839844 226.402344 110.785156 C 226.347656 110.730469 226.460938 110.652344 226.449219 110.554688 C 226.433594 110.457031 226.65625 110.257812 226.652344 110.222656 C 226.648438 110.191406 226.613281 110.15625 226.5625 110.082031 C 226.507812 110.003906 226.46875 109.972656 226.46875 109.972656 C 226.46875 109.972656 226.589844 109.902344 226.601562 109.886719 C 226.613281 109.871094 226.597656 109.847656 226.566406 109.777344 C 226.535156 109.707031 226.566406 109.707031 226.574219 109.664062 C 226.582031 109.621094 226.664062 109.582031 226.664062 109.582031 C 226.664062 109.582031 226.640625 109.542969 226.535156 109.449219 C 226.429688 109.359375 226.632812 109.367188 226.683594 109.363281 C 226.730469 109.359375 226.648438 109.320312 226.570312 109.222656 C 226.492188 109.128906 226.570312 109.148438 226.691406 109.152344 C 226.808594 109.15625 226.667969 109.03125 226.632812 108.972656 C 226.59375 108.910156 226.585938 108.769531 226.648438 108.792969 C 226.710938 108.816406 226.832031 108.925781 226.832031 108.925781 C 226.832031 108.925781 226.742188 108.726562 226.660156 108.597656 C 226.578125 108.472656 226.652344 108.464844 226.769531 108.53125 C 226.886719 108.601562 226.992188 108.691406 226.992188 108.691406 C 226.992188 108.691406 226.847656 108.46875 226.71875 108.339844 C 226.585938 108.210938 226.679688 108.1875 226.8125 108.242188 C 226.945312 108.292969 227.011719 108.425781 227.011719 108.425781 C 227.011719 108.425781 226.902344 108.164062 226.800781 108.101562 C 226.703125 108.035156 226.789062 107.894531 226.839844 107.933594 C 226.894531 107.972656 227.082031 108.042969 227.082031 108.042969 C 227.082031 108.042969 227.03125 107.863281 226.933594 107.785156 C 226.832031 107.707031 226.796875 107.582031 226.894531 107.621094 C 226.992188 107.664062 227.113281 107.8125 227.113281 107.8125 C 227.113281 107.8125 227.039062 107.652344 226.917969 107.550781 C 226.804688 107.457031 226.699219 106.917969 226.683594 106.855469 C 226.695312 106.882812 226.785156 106.964844 226.90625 107.097656 C 227.039062 107.234375 227.070312 107.394531 227.070312 107.394531 C 227.070312 107.394531 227.167969 107.230469 226.984375 107.007812 C 226.804688 106.785156 226.898438 106.566406 226.898438 106.566406 C 226.890625 106.757812 227.113281 106.777344 227.113281 106.777344 C 226.898438 106.566406 227.058594 105.769531 227.050781 105.609375 C 227.039062 105.453125 227.320312 105.578125 227.414062 105.683594 C 227.507812 105.789062 227.714844 106.144531 228.417969 106.03125 C 229.121094 105.917969 228.933594 105.664062 229.316406 105.351562 C 229.703125 105.039062 229.71875 104.820312 229.71875 104.820312 C 229.71875 104.820312 229.910156 104.761719 230.058594 104.628906 C 230.203125 104.5 230.152344 104.179688 230.132812 104.046875 C 230.109375 103.917969 229.902344 103.734375 229.644531 103.359375 C 229.386719 102.980469 229.441406 102.777344 229.445312 102.398438 C 229.449219 102.019531 229.476562 101.582031 229.230469 101.273438 C 228.980469 100.96875 228.707031 100.640625 228.28125 100.4375 C 227.855469 100.230469 227.566406 99.78125 227.46875 99.699219 C 227.367188 99.613281 227.335938 99.472656 227.261719 99.269531 C 227.1875 99.066406 227.203125 98.910156 226.839844 98.058594 C 226.480469 97.203125 226.160156 97.007812 226.125 96.980469 C 226.085938 96.953125 226.085938 96.84375 226.09375 96.726562 C 226.105469 96.605469 226.144531 96.386719 226.144531 96.386719 C 226.144531 96.386719 226.070312 96.664062 226.078125 96.578125 C 226.085938 96.492188 226.066406 96.4375 226.109375 96.316406 C 226.152344 96.191406 226.097656 96.164062 226.09375 96.058594 C 226.085938 95.957031 226.074219 95.949219 226.09375 95.878906 C 226.109375 95.808594 226.097656 95.695312 226.097656 95.695312 C 226.078125 95.761719 225.988281 95.875 225.996094 95.824219 C 226.003906 95.769531 226.054688 95.515625 226.03125 95.605469 C 226.007812 95.691406 225.929688 95.917969 225.90625 95.863281 C 225.886719 95.808594 225.960938 95.523438 225.917969 95.621094 C 225.871094 95.714844 225.898438 96.015625 225.878906 95.910156 C 225.859375 95.808594 225.8125 95.660156 225.8125 95.660156 C 225.8125 95.660156 225.855469 95.871094 225.871094 96.035156 C 225.886719 96.199219 225.824219 96.371094 225.8125 96.324219 C 225.796875 96.28125 225.765625 96.230469 225.765625 96.230469 C 225.78125 96.296875 225.816406 96.640625 225.839844 96.84375 C 225.859375 97.046875 225.6875 97.273438 225.425781 97.515625 C 225.164062 97.761719 225.066406 98.054688 224.96875 98.375 C 224.871094 98.699219 224.828125 98.890625 224.738281 99.046875 C 224.644531 99.203125 224.292969 99.328125 223.574219 100.0625 C 222.859375 100.796875 222.121094 102.066406 221.878906 102.480469 C 221.636719 102.894531 221.25 103.164062 220.539062 103.671875 C 219.828125 104.179688 219.394531 104.519531 219.097656 104.902344 C 218.804688 105.28125 218.414062 105.539062 217.789062 105.777344 C 217.164062 106.015625 216.183594 106.839844 215.285156 107.371094 C 214.390625 107.90625 213.175781 108.285156 212.148438 109.519531 C 211.117188 110.75 209.476562 113.46875 208.640625 115.761719 C 207.804688 118.050781 207.679688 119.445312 207.746094 119.945312 Z M 228.257812 103.105469 C 228.28125 103.007812 228.347656 102.792969 228.425781 102.894531 C 228.425781 102.894531 228.589844 103.042969 228.5 103.125 C 228.410156 103.207031 228.25 103.273438 228.25 103.273438 C 228.25 103.273438 228.230469 103.203125 228.257812 103.105469 " fill-opacity="1" fill-rule="nonzero"/></g></svg>